<svg xmlns="http://www.w3.org/2000/svg" xmlns:xlink="http://www.w3.org/1999/xlink" width="59" height="59" viewBox="0 0 59 59">
  <defs>
    <linearGradient id="linear-gradient" x1="0.5" x2="0.5" y2="1" gradientUnits="objectBoundingBox">
      <stop offset="0" stop-color="#1179ef"/>
      <stop offset="1" stop-color="#28c5f8"/>
    </linearGradient>
  </defs>
  <g id="Group_500" data-name="Group 500" transform="translate(-288 -25)">
    <circle id="Ellipse_100" data-name="Ellipse 100" cx="29.5" cy="29.5" r="29.5" transform="translate(288 25)" fill="#292929"/>
    <g id="noun-arrow-63654_2_" data-name="noun-arrow-63654 (2)" transform="translate(301.323 40.226)">
      <path id="Path_20741" data-name="Path 20741" d="M366.4,109.763l-9.687,9.611,9.687,9.608a2.718,2.718,0,0,1,0,3.846,2.766,2.766,0,0,1-3.884,0L350.9,121.3a2.716,2.716,0,0,1,0-3.844l11.618-11.534a2.766,2.766,0,0,1,3.884,0,2.719,2.719,0,0,1,0,3.847Z" transform="translate(-350.099 -105.121)" fill="url(#linear-gradient)"/>
      <path id="Path_20742" data-name="Path 20742" d="M140.913,121.292a2.716,2.716,0,0,1,0-3.844l11.619-11.534a2.768,2.768,0,0,1,3.886,0,2.718,2.718,0,0,1,0,3.846l-9.689,9.611,9.689,9.608a2.718,2.718,0,0,1,0,3.846,2.768,2.768,0,0,1-3.886,0Z" transform="translate(-123.022 -105.117)" fill="#4a5b6b"/>
    </g>
  </g>
</svg>
